<svg version="1.1" viewBox="0.0 0.0 600.0 200.0" fill="none" stroke="none" stroke-linecap="square" stroke-miterlimit="10" xmlns:xlink="http://www.w3.org/1999/xlink" xmlns="http://www.w3.org/2000/svg"><clipPath id="p.0"><path d="m0 0l600.0 0l0 200.0l-600.0 0l0 -200.0z" clip-rule="nonzero"/></clipPath><g clip-path="url(#p.0)"><path fill="#000000" fill-opacity="0.0" d="m0 0l600.0 0l0 200.0l-600.0 0z" fill-rule="evenodd"/><defs><radialGradient id="p.1" gradientUnits="userSpaceOnUse" gradientTransform="matrix(17.55343653027263 0.0 0.0 17.55343653027263 0.0 0.0)" spreadMethod="pad" cx="17.090670506747806" cy="5.696890168915934" fx="17.090670506747806" fy="5.696890168915934" r="17.553436279296875"><stop offset="0.0" stop-color="#980000"/><stop offset="0.71" stop-color="#cc0000"/><stop offset="1.0" stop-color="#ff0000"/></radialGradient></defs><path fill="url(#p.1)" d="m6.4094486 37.659416l0 0c0 -17.215393 13.955833 -31.171227 31.171228 -31.171227l524.8386 0c8.267151 0 16.195679 3.2841024 22.041382 9.129841c5.845764 5.8457403 9.129883 13.774262 9.129883 22.041386l0 124.681175c0 17.215393 -13.955872 31.171219 -31.171265 31.171219l-524.8386 0c-17.215395 0 -31.171228 -13.955826 -31.171228 -31.171219z" fill-rule="evenodd"/><path stroke="#000000" stroke-width="4.0" stroke-linejoin="round" stroke-linecap="butt" d="m6.4094486 37.659416l0 0c0 -17.215393 13.955833 -31.171227 31.171228 -31.171227l524.8386 0c8.267151 0 16.195679 3.2841024 22.041382 9.129841c5.845764 5.8457403 9.129883 13.774262 9.129883 22.041386l0 124.681175c0 17.215393 -13.955872 31.171219 -31.171265 31.171219l-524.8386 0c-17.215395 0 -31.171228 -13.955826 -31.171228 -31.171219z" fill-rule="evenodd"/><path fill="#000000" fill-opacity="0.0" d="m237.1181 100.0l0 0c0 -34.624336 28.153198 -62.692913 62.881897 -62.692913l0 0c16.677307 0 32.67157 6.6051254 44.464203 18.362328c11.792664 11.757206 18.417694 27.703388 18.417694 44.330585l0 0c0 34.624344 -28.153198 62.692917 -62.881897 62.692917l0 0c-34.7287 0 -62.881897 -28.068573 -62.881897 -62.692917z" fill-rule="evenodd"/><path fill="#000000" fill-opacity="0.0" d="m255.53578 55.669415l88.92842 88.66116m0 -88.66116l-88.92842 88.66116" fill-rule="evenodd"/><path fill="#000000" fill-opacity="0.0" d="m237.1181 100.0l0 0c0 -34.624336 28.153198 -62.692913 62.881897 -62.692913l0 0c16.677307 0 32.67157 6.6051254 44.464203 18.362328c11.792664 11.757206 18.417694 27.703388 18.417694 44.330585l0 0c0 34.624344 -28.153198 62.692917 -62.881897 62.692917l0 0c-34.7287 0 -62.881897 -28.068573 -62.881897 -62.692917z" fill-rule="evenodd"/><path stroke="#000000" stroke-width="4.0" stroke-linejoin="round" stroke-linecap="butt" d="m255.53578 55.669415l88.92842 88.66116m0 -88.66116l-88.92842 88.66116" fill-rule="evenodd"/><path stroke="#000000" stroke-width="4.0" stroke-linejoin="round" stroke-linecap="butt" d="m237.1181 100.0l0 0c0 -34.624336 28.153198 -62.692913 62.881897 -62.692913l0 0c16.677307 0 32.67157 6.6051254 44.464203 18.362328c11.792664 11.757206 18.417694 27.703388 18.417694 44.330585l0 0c0 34.624344 -28.153198 62.692917 -62.881897 62.692917l0 0c-34.7287 0 -62.881897 -28.068573 -62.881897 -62.692917z" fill-rule="evenodd"/></g></svg>